<svg width="92" height="92" viewBox="0 0 92 92" fill="none" xmlns="http://www.w3.org/2000/svg">
<g clip-path="url(#clip0_79_3021)">
<path d="M41.1981 53.9852C41.1981 53.9852 44.1605 53.7276 44.1605 49.9004C44.1605 46.0732 40.5725 45.7236 40.5725 45.7236H34.0957V57.8124H37.3525V54.9052L40.1677 57.8124H44.9885L41.1981 53.9852ZM39.9469 51.5196H37.3525V48.7596H39.9653C39.9653 48.7596 40.7013 49.0356 40.7013 50.1396C40.7013 51.2436 39.9469 51.5196 39.9469 51.5196ZM52.2013 45.7972H48.8893C46.5341 45.7972 45.7429 47.9316 45.7429 48.9436V57.794H49.0549V55.678H52.1645V57.794H55.3661V48.9436C55.3477 46.386 53.0109 45.7972 52.2013 45.7972ZM52.1461 52.2556H49.0365V49.33C49.0365 49.33 49.0365 48.6676 50.0669 48.6676H51.2077C52.1277 48.6676 52.1461 49.33 52.1461 49.33V52.2556ZM56.8565 45.7972H60.2973V57.794H56.8565V45.7972ZM65.1365 54.7028V45.8156H61.7141V54.7028V57.8124H65.1365H69.7549V54.7028H65.1365ZM70.8957 54.7396V57.8124H76.4341C77.5749 57.8124 79.5253 56.9844 79.5805 54.666V53.4884C79.5805 51.5012 77.9613 50.342 76.4341 50.342H73.6741V48.9252H79.1389V45.834H73.8949C72.5333 45.834 70.7301 46.9564 70.7301 49.0356V50.1028C70.7301 52.182 72.5333 53.2492 73.8949 53.2492C77.7037 53.2676 72.9749 53.2492 76.5077 53.2492V54.7396H70.8957Z" fill="#CC0000"/>
<path d="M13.598 57.7755H26.9748C26.9748 57.7755 24.4172 46.1099 32.8812 41.3811C34.7212 40.4795 40.6092 37.1307 50.2324 44.2515C50.5452 43.9939 50.8212 43.7915 50.8212 43.7915C50.8212 43.7915 42.0076 34.9963 32.2004 35.9899C27.2692 36.4315 21.1972 40.9211 17.646 46.8459C14.1132 52.7707 13.598 57.7755 13.598 57.7755ZM41.4924 36.9283L41.566 35.7875C41.4188 35.6955 40.9956 35.4931 39.9284 35.1987L39.8548 36.3211C40.4068 36.5051 40.9588 36.7075 41.4924 36.9283ZM39.8916 40.5163L39.818 41.5835C40.37 41.6019 40.9404 41.6755 41.4924 41.7859L41.566 40.7371C40.9772 40.6267 40.4252 40.5531 39.8916 40.5163ZM33.6172 35.2355H33.7828L33.4516 34.2051C32.918 34.2051 32.3844 34.2419 31.8324 34.3155L32.1452 35.3091C32.6236 35.2539 33.1204 35.2355 33.6172 35.2355ZM34.4268 41.4731L34.8132 42.6507C35.31 42.4115 35.7884 42.2091 36.2852 42.0619L35.9172 40.9395C35.3468 41.0867 34.85 41.2891 34.4268 41.4731ZM26.7356 37.0203L25.9812 35.8427C25.558 36.0635 25.1164 36.3027 24.6564 36.5787L25.4292 37.7563C25.8708 37.4803 26.294 37.2227 26.7356 37.0203ZM30.2132 44.6379L31.0228 45.8523C31.3172 45.4291 31.6484 45.0427 32.0164 44.6563L31.262 43.4971C30.8756 43.8651 30.5076 44.2515 30.2132 44.6379ZM27.7476 50.0843L29.1276 51.1699C29.2012 50.5075 29.3116 49.8451 29.4772 49.1827L28.2628 48.2259C28.042 48.8515 27.8948 49.4771 27.7476 50.0843ZM20.3324 42.0435L19.1364 40.9947C18.6948 41.4179 18.2716 41.8411 17.8852 42.2643L19.1916 43.3867C19.5412 42.9267 19.9276 42.4667 20.3324 42.0435ZM15.2172 49.6243L13.2668 48.9067C12.954 49.6427 12.586 50.4891 12.4204 50.9307L14.3708 51.6483C14.5916 51.0779 14.9412 50.2499 15.2172 49.6243ZM27.49 54.3899C27.5268 55.2915 27.6004 56.0091 27.6924 56.5243L29.7164 57.2603C29.5692 56.5979 29.4036 55.8619 29.3116 55.0523L27.49 54.3899Z" fill="#CC0000"/>
</g>
<defs>
<clipPath id="clip0_79_3021">
<rect width="92" height="92" fill="white"/>
</clipPath>
</defs>
</svg>
